<?xml version="1.0" encoding="utf-8"?>
<!-- Generator: Adobe Illustrator 16.0.0, SVG Export Plug-In . SVG Version: 6.00 Build 0)  -->
<!DOCTYPE svg PUBLIC "-//W3C//DTD SVG 1.1//EN" "http://www.w3.org/Graphics/SVG/1.1/DTD/svg11.dtd">
<svg version="1.1" id="Layer_1" xmlns="http://www.w3.org/2000/svg" xmlns:xlink="http://www.w3.org/1999/xlink" x="0px" y="0px"
	 width="841.89px" height="595.28px" viewBox="0 0 841.89 595.28" enable-background="new 0 0 841.89 595.28" xml:space="preserve">
<g>
	<g>
		<path fill="#00D405" d="M431.799,381.81c9.668-128.142,22.296-297.689,22.296-308.989c0-18.307-14.841-33.146-33.148-33.146
			c-18.306,0-33.147,14.84-33.147,33.146c0,11.3,12.628,180.848,22.295,308.989c3.578-0.273,7.195-0.421,10.852-0.421
			C424.604,381.389,428.221,381.536,431.799,381.81z"/>
		<g>
			<path fill="#0074FF" d="M559.174,93.2c4.293-17.796-6.654-35.703-24.449-39.996c-17.797-4.293-35.703,6.652-39.996,24.448
				c-2.65,10.985-30.139,178.779-50.794,305.617c7.254,1.198,14.291,2.953,21.056,5.215
				C504.446,266.167,556.521,104.188,559.174,93.2z"/>
			<path fill="#00D405" d="M652.994,135.517c8.197-16.369,1.574-36.283-14.795-44.48c-16.369-8.198-36.283-1.575-44.48,14.794
				c-5.064,10.11-69.791,167.592-118.542,286.528c6.719,2.873,13.116,6.26,19.12,10.111
				C560.369,292.146,647.924,145.64,652.994,135.517z"/>
			<path fill="#0074FF" d="M724.318,146.227c-14.285-11.448-35.146-9.147-46.594,5.139
				c-7.086,8.843-103.762,149.797-176.416,255.942c5.82,4.313,11.201,9.086,16.084,14.253
				c87.84-94.13,204.961-219.874,212.066-228.74C740.906,178.533,738.605,157.674,724.318,146.227z"/>
		</g>
		<g>
			<path fill="#0074FF" d="M282.716,93.2c-4.293-17.796,6.653-35.703,24.449-39.996s35.703,6.652,39.996,24.448
				c2.65,10.985,30.139,178.779,50.794,305.617c-7.254,1.198-14.291,2.953-21.056,5.215
				C337.444,266.167,285.368,104.188,282.716,93.2z"/>
			<path fill="#00D405" d="M188.896,135.517c-8.198-16.369-1.574-36.283,14.794-44.48c16.368-8.198,36.283-1.575,44.481,14.794
				c5.063,10.11,69.79,167.592,118.541,286.528c-6.719,2.873-13.115,6.26-19.12,10.111
				C281.52,292.146,193.966,145.64,188.896,135.517z"/>
			<path fill="#0074FF" d="M117.571,146.227c14.286-11.448,35.146-9.147,46.594,5.139c7.085,8.843,103.762,149.797,176.416,255.942
				c-5.82,4.313-11.2,9.086-16.083,14.253c-87.841-94.13-204.962-219.874-212.067-228.74
				C100.984,178.533,103.285,157.674,117.571,146.227z"/>
		</g>
	</g>
	<g>
		<path fill="#404042" d="M302.322,555.289c-5.863,0-11.276-0.866-16.238-2.597c-4.962-1.729-9.228-4.308-12.794-7.734
			c-3.568-3.426-6.332-7.7-8.292-12.821c-1.96-5.121-2.94-11.037-2.94-17.749c0-6.251,0.936-11.92,2.808-17.006
			s4.591-9.448,8.159-13.086c3.426-3.497,7.673-6.199,12.742-8.106c5.068-1.907,10.604-2.86,16.609-2.86
			c3.319,0,6.313,0.185,8.98,0.556c2.667,0.371,5.13,0.856,7.391,1.457c2.366,0.671,4.512,1.422,6.438,2.252
			c1.924,0.83,3.611,1.599,5.06,2.305v19.126h-2.331c-0.989-0.843-2.234-1.845-3.735-3.004c-1.501-1.16-3.205-2.303-5.112-3.428
			c-1.943-1.124-4.045-2.073-6.305-2.846c-2.261-0.773-4.681-1.16-7.258-1.16c-2.861,0-5.581,0.449-8.159,1.349
			c-2.579,0.899-4.962,2.388-7.152,4.468c-2.084,2.009-3.771,4.671-5.06,7.983c-1.29,3.313-1.934,7.331-1.934,12.055
			c0,4.935,0.697,9.059,2.093,12.372c1.395,3.313,3.152,5.922,5.271,7.824c2.154,1.938,4.556,3.322,7.205,4.15
			c2.649,0.829,5.263,1.242,7.841,1.242c2.472,0,4.918-0.368,7.338-1.106c2.418-0.737,4.653-1.739,6.702-3.005
			c1.73-1.019,3.338-2.107,4.821-3.268s2.702-2.161,3.656-3.005h2.119v18.861c-1.979,0.883-3.868,1.713-5.669,2.489
			c-1.801,0.778-3.691,1.449-5.669,2.014c-2.579,0.742-4.998,1.307-7.258,1.695C309.386,555.095,306.277,555.289,302.322,555.289z"
			/>
		<path fill="#404042" d="M363.249,553.753h-19.125v-82.438h19.125V553.753z"/>
		<path fill="#404042" d="M442.031,524.03c0,9.784-2.853,17.493-8.557,23.126c-5.704,5.635-13.713,8.45-24.026,8.45
			c-10.314,0-18.323-2.815-24.027-8.45c-5.704-5.633-8.556-13.342-8.556-23.126c0-9.854,2.869-17.589,8.609-23.205
			c5.739-5.616,13.73-8.424,23.974-8.424c10.384,0,18.411,2.826,24.08,8.478S442.031,514.248,442.031,524.03z M418.561,538.494
			c1.236-1.518,2.163-3.346,2.782-5.483c0.617-2.137,0.927-5.094,0.927-8.874c0-3.497-0.318-6.428-0.954-8.795
			c-0.635-2.366-1.519-4.256-2.649-5.669c-1.131-1.447-2.49-2.472-4.079-3.072c-1.59-0.601-3.303-0.901-5.139-0.901
			c-1.837,0-3.47,0.248-4.901,0.742c-1.431,0.495-2.8,1.483-4.106,2.967c-1.166,1.377-2.093,3.268-2.781,5.669
			c-0.689,2.402-1.033,5.422-1.033,9.06c0,3.25,0.299,6.066,0.9,8.45c0.6,2.384,1.484,4.301,2.649,5.748
			c1.13,1.378,2.481,2.385,4.053,3.021c1.571,0.636,3.364,0.953,5.377,0.953c1.73,0,3.382-0.291,4.954-0.874
			C416.132,540.853,417.465,539.872,418.561,538.494z"/>
		<path fill="#404042" d="M507.409,534.892c0,6.146-2.755,11.1-8.266,14.861c-5.509,3.762-13.051,5.643-22.622,5.643
			c-5.298,0-10.102-0.496-14.41-1.484c-4.31-0.988-7.771-2.083-10.385-3.284v-15.683h1.748c0.954,0.672,2.058,1.404,3.312,2.199
			s3.028,1.651,5.325,2.569c1.978,0.813,4.22,1.51,6.728,2.093c2.508,0.582,5.192,0.874,8.054,0.874
			c3.743,0,6.517-0.415,8.317-1.245c1.802-0.829,2.702-2.057,2.702-3.682c0-1.448-0.529-2.499-1.59-3.152
			c-1.06-0.653-3.072-1.28-6.039-1.881c-1.413-0.318-3.33-0.662-5.749-1.033s-4.618-0.821-6.596-1.351
			c-5.403-1.413-9.413-3.611-12.026-6.597c-2.614-2.984-3.92-6.702-3.92-11.152c0-5.722,2.71-10.48,8.132-14.278
			c5.421-3.796,12.829-5.695,22.226-5.695c4.45,0,8.715,0.45,12.794,1.352c4.08,0.9,7.267,1.863,9.563,2.887v15.047h-1.643
			c-2.826-1.942-6.049-3.523-9.669-4.742c-3.62-1.218-7.284-1.827-10.993-1.827c-3.073,0-5.661,0.423-7.762,1.271
			c-2.102,0.848-3.152,2.049-3.152,3.603c0,1.413,0.477,2.489,1.431,3.231c0.953,0.742,3.196,1.483,6.729,2.226
			c1.941,0.389,4.034,0.768,6.278,1.139c2.242,0.371,4.494,0.84,6.755,1.404c5.015,1.307,8.724,3.364,11.126,6.172
			C506.208,527.183,507.409,530.688,507.409,534.892z"/>
		<path fill="#404042" d="M579.832,553.753h-19.125v-29.511c0-2.401-0.125-4.794-0.371-7.179c-0.248-2.384-0.672-4.141-1.271-5.271
			c-0.707-1.306-1.74-2.26-3.1-2.86s-3.258-0.901-5.695-0.901c-1.73,0-3.488,0.283-5.271,0.848
			c-1.783,0.565-3.719,1.467-5.801,2.702v42.173H520.07v-82.438h19.127v29.51c3.385-2.648,6.639-4.68,9.762-6.093
			c3.121-1.412,6.586-2.119,10.396-2.119c6.42,0,11.438,1.873,15.053,5.616c3.617,3.744,5.424,9.343,5.424,16.795V553.753z"/>
	</g>
</g>
</svg>
